<?xml version="1.0" encoding="UTF-8"?>
<svg xmlns="http://www.w3.org/2000/svg" version="1.1" viewBox="0 0 1320 270">
  <defs>
    <style>
      .st0 {
        fill: #fff;
      }
    </style>
  </defs>
  <!-- Decorative slash -->
  <path class="st0" d="M144.7,5.7c5.5,0,7.7,3.3,5.9,8.5l-95.3,245.7c-1.5,4.1-4.1,5.9-8.5,5.9H12.1c-5.5,0-7.7-3.3-5.9-8.5L101.9,11.6c1.5-4.1,4.1-5.9,8.5-5.9h34.3Z"/>
  <!-- "imagine" text outlined from Norwester font -->
  <path class="st0" d="M174.24 263.30C170.18 263.30 168.34 261.09 168.34 257.40L168.34 11.04C168.34 7.35 170.18 5.14 174.24 5.14L212.60 5.14C216.28 5.14 218.50 7.35 218.50 11.04L218.50 257.40C218.50 261.09 216.28 263.30 212.60 263.30ZM409.54 5.14C405.11 5.14 402.53 7.35 401.42 11.41L360.48 175.89L319.55 11.41C318.44 7.35 315.86 5.14 311.43 5.14L262.75 5.14C257.96 5.14 255.38 7.72 255.38 12.52L255.38 255.92C255.38 260.72 257.96 263.30 262.75 263.30L296.68 263.30C301.48 263.30 304.06 260.72 304.06 255.92L304.06 110.99L306.64 110.99L341.31 257.03C342.41 261.09 345.00 263.30 349.42 263.30L371.18 263.30C375.61 263.30 378.19 261.09 379.29 257.03L413.96 110.99L416.54 110.99L416.54 255.92C416.54 260.72 419.12 263.30 423.92 263.30L458.22 263.30C463.01 263.30 465.59 260.72 465.59 255.92L465.59 12.52C465.59 7.72 463.01 5.14 458.22 5.14ZM672.86 263.30C677.28 263.30 679.13 261.09 678.02 257.03L616.80 10.30C616.06 6.62 613.85 5.14 610.53 5.14L559.27 5.14C555.95 5.14 553.74 6.62 553.00 10.30L491.78 257.03C490.67 261.09 492.52 263.30 496.57 263.30L532.71 263.30C536.03 263.30 537.88 261.46 538.62 258.14L550.05 211.67L619.38 211.67L631.18 258.14C631.92 261.46 633.77 263.30 637.08 263.30ZM607.95 168.89L561.48 168.89L584.72 68.57ZM700.52 210.19C700.52 244.86 718.96 263.30 753.63 263.30L794.93 263.30C829.23 263.30 848.04 244.86 848.04 210.19L848.04 126.11C848.04 122.05 845.83 120.21 842.14 120.21L782.39 120.21C778.34 120.21 776.49 122.05 776.49 126.11L776.49 162.99C776.49 166.67 778.34 168.89 782.39 168.89L801.57 168.89L801.57 200.97C801.57 210.93 796.41 215.72 786.82 215.72L763.21 215.72C753.63 215.72 748.46 210.93 748.46 200.97L748.46 67.47C748.46 57.88 753.26 52.72 763.21 52.72L786.82 52.72C796.41 52.72 801.57 57.88 801.57 67.47L801.57 85.54C801.57 89.23 803.41 91.44 807.47 91.44L842.14 91.44C845.83 91.44 848.04 89.23 848.04 85.54L848.04 58.25C848.04 23.58 829.23 5.14 794.93 5.14L753.63 5.14C718.96 5.14 700.52 23.58 700.52 58.25ZM890.82 263.30C886.76 263.30 884.92 261.09 884.92 257.40L884.92 11.04C884.92 7.35 886.76 5.14 890.82 5.14L929.17 5.14C932.86 5.14 935.08 7.35 935.08 11.04L935.08 257.40C935.08 261.09 932.86 263.30 929.17 263.30ZM1088.86 5.14C1084.81 5.14 1082.96 7.35 1082.96 11.04L1082.96 150.82L1013.63 9.93C1012.15 6.62 1010.31 5.14 1006.99 5.14L977.86 5.14C974.17 5.14 971.96 7.35 971.96 11.04L971.96 257.40C971.96 261.09 974.17 263.30 977.86 263.30L1012.52 263.30C1016.58 263.30 1018.42 261.09 1018.42 257.40L1018.42 117.62L1087.76 258.51C1089.23 261.82 1091.08 263.30 1094.40 263.30L1123.53 263.30C1127.22 263.30 1129.43 261.09 1129.43 257.40L1129.43 11.04C1129.43 7.35 1127.22 5.14 1123.53 5.14ZM1313.46 11.04C1313.46 7.35 1311.99 5.14 1307.56 5.14L1171.84 5.14C1168.53 5.14 1166.31 7.35 1166.31 11.04L1166.31 257.40C1166.31 261.09 1168.53 263.30 1171.84 263.30L1307.56 263.30C1311.99 263.30 1313.46 261.09 1313.46 257.40L1313.46 220.52C1313.46 216.46 1311.99 214.62 1307.56 214.62L1216.47 214.62L1216.47 160.04L1285.80 160.04C1289.49 160.04 1291.70 157.82 1291.70 153.77L1291.70 117.26C1291.70 113.20 1289.49 110.99 1285.80 110.99L1216.47 110.99L1216.47 54.19L1307.56 54.19C1311.99 54.19 1313.46 51.61 1313.46 47.92Z"/>
</svg>
